<?xml version="1.0" encoding="utf-8"?>
<!-- Generator: Adobe Illustrator 17.0.0, SVG Export Plug-In . SVG Version: 6.00 Build 0)  -->
<!DOCTYPE svg PUBLIC "-//W3C//DTD SVG 1.1//EN" "http://www.w3.org/Graphics/SVG/1.1/DTD/svg11.dtd">
<svg version="1.1" id="Layer_1" xmlns="http://www.w3.org/2000/svg" xmlns:xlink="http://www.w3.org/1999/xlink" x="0px" y="0px"
	 width="204.427px" height="76.6px" viewBox="-525.772 199.978 204.427 76.6"
	 enable-background="new -525.772 199.978 204.427 76.6" xml:space="preserve">
<g>
	<linearGradient id="SVGID_1_" gradientUnits="userSpaceOnUse" x1="-514.5543" y1="265.3603" x2="-460.3898" y2="211.1958">
		<stop  offset="0" style="stop-color:#ECFFFF"/>
		<stop  offset="0.0812" style="stop-color:#E3F5FF"/>
		<stop  offset="0.2173" style="stop-color:#CBDBFF"/>
		<stop  offset="0.3917" style="stop-color:#A4B1FF"/>
		<stop  offset="0.5975" style="stop-color:#6E76FF"/>
		<stop  offset="0.8271" style="stop-color:#292DFF"/>
		<stop  offset="0.9557" style="stop-color:#0000FF"/>
	</linearGradient>
	<circle fill="url(#SVGID_1_)" cx="-487.472" cy="238.278" r="38.3"/>
	<path fill="#FF9000" d="M-512.805,209.608c5.697-5.12,12.916-8.519,20.917-9.413l-14.749,16.135L-512.805,209.608z"/>
	<path fill="#FFAE2A" d="M-483.2,218.986c0-3.394,0.967-6.012,2.908-7.857c1.937-1.845,4.285-2.767,7.046-2.767
		c2.609,0,4.883,0.942,6.82,2.825c1.937,1.88,2.908,4.482,2.908,7.8c0,3.318-0.977,5.917-2.936,7.8
		c-1.956,1.883-4.26,2.825-6.906,2.825c-2.682,0-4.994-0.942-6.932-2.825C-482.233,224.903-483.2,222.303-483.2,218.986z"/>
	<path fill="#752991" d="M-524.818,246.79l13.284,0v21.252C-517.716,263.068-523.06,255.444-524.818,246.79z"/>
	<linearGradient id="SVGID_2_" gradientUnits="userSpaceOnUse" x1="-506.9238" y1="237.9579" x2="-506.9238" y2="220.4934">
		<stop  offset="0" style="stop-color:#FF2B61"/>
		<stop  offset="0.2986" style="stop-color:#F5285E"/>
		<stop  offset="0.7971" style="stop-color:#DC2258"/>
		<stop  offset="0.9557" style="stop-color:#D21F55"/>
	</linearGradient>
	<polygon fill="url(#SVGID_2_)" points="-498.005,237.958 -515.842,237.958 -515.842,220.493 -507.511,229.219 -506.337,229.219 
		-498.005,220.493 	"/>
	<path fill="#412A8E" d="M-484.571,273.774c1.26,0.967,2.628,1.555,4.1,2.131c-2.309,0.436-4.701,0.664-7.135,0.664
		c-5.074,0-9.907-1.021-14.341-2.809v-26.853h12.705v17.025C-489.241,268.109-487.686,271.389-484.571,273.774z"/>
	<linearGradient id="SVGID_3_" gradientUnits="userSpaceOnUse" x1="-473.3039" y1="238.591" x2="-473.3039" y2="268.3505">
		<stop  offset="0" style="stop-color:#0089F5"/>
		<stop  offset="0.2319" style="stop-color:#0093F5"/>
		<stop  offset="0.6188" style="stop-color:#00ACF7"/>
		<stop  offset="0.9557" style="stop-color:#00C8F8"/>
	</linearGradient>
	<path fill="url(#SVGID_3_)" d="M-473.415,239.285c2.071,0,4.011-0.232,5.815-0.694v25.118c0,1.53-0.56,2.685-1.676,3.467
		c-1.12,0.783-2.443,1.174-3.97,1.174c-1.603,0-2.965-0.391-4.085-1.174c-1.117-0.783-1.676-1.937-1.676-3.467v-25.118
		C-477.217,239.055-475.356,239.285-473.415,239.285z"/>
	<path fill="#67C32B" d="M-457.341,261.914v-29.593c0,0,4.595-3.53,4.145-11.168c2.682,5.243,4.024,10.816,4.024,17.111
		c0,2.501-0.237,4.915-0.687,7.255c-0.267,1.391-0.614,2.762-1.021,4.091C-452.262,254.116-454.432,258.252-457.341,261.914z"/>
	<linearGradient id="SVGID_4_" gradientUnits="userSpaceOnUse" x1="-480.526" y1="226.5542" x2="-468.9226" y2="214.9509">
		<stop  offset="0" style="stop-color:#FF8585"/>
		<stop  offset="0.4134" style="stop-color:#FF7B80"/>
		<stop  offset="1" style="stop-color:#FF6674"/>
	</linearGradient>
	<path fill="url(#SVGID_4_)" d="M-482.288,214.011c-0.608,1.415-0.912,3.073-0.912,4.975c0,3.318,0.967,5.917,2.908,7.8
		c1.937,1.883,4.25,2.825,6.932,2.825c2.647,0,4.95-0.942,6.906-2.825c1.693-1.627,2.651-3.79,2.88-6.487
		C-468.811,216.948-475.241,214.701-482.288,214.011z"/>
	<linearGradient id="SVGID_5_" gradientUnits="userSpaceOnUse" x1="-453.5861" y1="260.2654" x2="-453.5861" y2="228.5783">
		<stop  offset="0" style="stop-color:#00B58E"/>
		<stop  offset="0.3324" style="stop-color:#00AB88"/>
		<stop  offset="0.8877" style="stop-color:#009279"/>
		<stop  offset="0.9557" style="stop-color:#008E77"/>
	</linearGradient>
	<path fill="url(#SVGID_5_)" d="M-449.831,242.76c0-5.152-1.717-9.99-4.723-14.182c-1.215,2.532-2.787,3.743-2.787,3.743v27.944
		c3.017-3.118,5.249-6.73,6.462-10.656c0.064-0.207,0.123-0.418,0.184-0.627C-450.136,246.979-449.831,244.895-449.831,242.76z"/>
	<linearGradient id="SVGID_6_" gradientUnits="userSpaceOnUse" x1="-486.6825" y1="259.3207" x2="-501.9468" y2="259.3207">
		<stop  offset="0" style="stop-color:#6041FB"/>
		<stop  offset="0.4265" style="stop-color:#644BFA"/>
		<stop  offset="0.9557" style="stop-color:#6B5DF7"/>
	</linearGradient>
	<path fill="url(#SVGID_6_)" d="M-489.241,246.907h-12.705v22.276c4.591,1.635,9.678,2.552,15.035,2.552
		c0.077,0,0.153-0.002,0.229-0.002c-1.706-2.11-2.559-4.709-2.559-7.801V246.907z"/>
	<path fill="#D360F2" d="M-511.534,264.138l0-17.349h-11.651C-521.971,253.546-517.723,259.647-511.534,264.138z"/>
</g>
<g>
	<path d="M-350.47,242.483c-0.586,0.082-1.22,0.122-1.904,0.122c-2.05,0-3.075-0.959-3.075-2.88v-7.614h6.345v-6.833h-6.345v-11.032
		c-0.511,0.655-1.114,1.256-1.819,1.798c-1.878,1.448-4.038,2.363-6.479,2.75v6.483h-3.709v6.833h3.709v9.273
		c0,1.562,0.244,2.855,0.732,3.88c0.488,1.025,1.139,1.847,1.952,2.465c0.813,0.618,1.749,1.057,2.806,1.318
		c1.057,0.26,2.155,0.39,3.294,0.39c2.343,0,4.457-0.326,6.345-0.976v-6.443C-349.267,242.247-349.885,242.402-350.47,242.483z"/>
	<path d="M-437.052,249.086v-23.464h8.175v2.771c1.709-2.263,4.111-3.372,7.205-3.372c3.002,0,5.404,1.894,6.467,3.88
		c1.524-2.217,4.526-3.88,7.667-3.88c4.942,0,8.36,3.279,8.36,9.423v14.642h-8.175V236.06c0-2.54-0.969-3.787-2.956-3.787
		c-1.617,0-2.863,0.739-3.695,2.171v14.642h-8.175V236.06c0-2.54-0.969-3.787-2.956-3.787c-1.616,0-2.863,0.739-3.741,2.171v14.642
		H-437.052z"/>
	<path d="M-382.224,249.686c-3.834,0-6.975-1.154-9.469-3.51c-2.494-2.356-3.741-5.312-3.741-8.822s1.247-6.42,3.741-8.776
		c2.494-2.356,5.636-3.556,9.469-3.556s6.974,1.201,9.468,3.556c2.494,2.356,3.742,5.266,3.742,8.776s-1.247,6.466-3.742,8.822
		C-375.249,248.531-378.39,249.686-382.224,249.686z M-382.224,231.995c-3.002,0-5.173,2.356-5.173,5.358
		c0,3.095,2.171,5.358,5.173,5.358s5.173-2.263,5.173-5.358C-377.051,234.351-379.221,231.995-382.224,231.995z"/>
	<path d="M-344.994,240.033v-14.411h8.175v12.887c0,2.771,1.478,3.88,3.372,3.88c1.617,0,2.91-0.693,3.926-2.079v-14.688h8.175
		v23.464h-8.175v-2.633c-2.032,2.171-4.388,3.233-7.113,3.233C-341.853,249.686-344.994,245.945-344.994,240.033z"/>
</g>
</svg>
