<?xml version="1.0" encoding="utf-8"?>
<!-- Generator: Adobe Illustrator 17.0.0, SVG Export Plug-In . SVG Version: 6.00 Build 0)  -->
<!DOCTYPE svg PUBLIC "-//W3C//DTD SVG 1.1//EN" "http://www.w3.org/Graphics/SVG/1.1/DTD/svg11.dtd">
<svg version="1.1" id="Layer_1" xmlns="http://www.w3.org/2000/svg" xmlns:xlink="http://www.w3.org/1999/xlink" x="0px" y="0px"
	 width="1129.859px" height="118.776px" viewBox="-525.772 178.89 1129.859 118.776"
	 enable-background="new -525.772 178.89 1129.859 118.776" xml:space="preserve">
<g>
	<linearGradient id="SVGID_1_" gradientUnits="userSpaceOnUse" x1="-329.1144" y1="514.8968" x2="407.4288" y2="-38.4647">
		<stop  offset="0" style="stop-color:#272AFF"/>
		<stop  offset="1" style="stop-color:#00BFF8"/>
	</linearGradient>
	<path fill="none" stroke="url(#SVGID_1_)" stroke-width="2" stroke-miterlimit="10" stroke-dasharray="6,6" d="M603.587,241.787
		c0,17.15-14.031,31.181-31.181,31.181H-494.091c-17.15,0-31.181-14.031-31.181-31.181v-7.141c0-17.15,14.032-31.181,31.181-31.181
		H572.406c17.15,0,31.181,14.031,31.181,31.181V241.787z"/>
</g>
<g>
	<linearGradient id="SVGID_2_" gradientUnits="userSpaceOnUse" x1="-444.6423" y1="273.2117" x2="-268.9391" y2="273.2117">
		<stop  offset="0" style="stop-color:#6041FB"/>
		<stop  offset="0.4265" style="stop-color:#644BFA"/>
		<stop  offset="0.9557" style="stop-color:#6B5DF7"/>
	</linearGradient>
	<path fill="url(#SVGID_2_)" d="M-268.939,275.748c0,12.055-9.863,21.918-21.918,21.918h-131.868
		c-12.055,0-21.918-9.863-21.918-21.918v-5.074c0-12.055,9.863-21.918,21.918-21.918h131.868c12.055,0,21.918,9.863,21.918,21.918
		V275.748z"/>
</g>
<g>
	<linearGradient id="SVGID_3_" gradientUnits="userSpaceOnUse" x1="-77.756" y1="273.2117" x2="201.8214" y2="273.2117">
		<stop  offset="0" style="stop-color:#6041FB"/>
		<stop  offset="0.4265" style="stop-color:#644BFA"/>
		<stop  offset="0.9557" style="stop-color:#6B5DF7"/>
	</linearGradient>
	<path fill="url(#SVGID_3_)" d="M201.821,273.212c0,13.45-12.441,24.454-27.647,24.454H-50.108
		c-15.206,0-27.647-11.004-27.647-24.454s12.441-24.454,27.647-24.454h224.282C189.38,248.757,201.821,259.762,201.821,273.212z"/>
</g>
<g>
	<linearGradient id="SVGID_4_" gradientUnits="userSpaceOnUse" x1="278.6307" y1="203.3445" x2="493.3791" y2="203.3445">
		<stop  offset="0" style="stop-color:#6041FB"/>
		<stop  offset="0.4265" style="stop-color:#644BFA"/>
		<stop  offset="0.9557" style="stop-color:#6B5DF7"/>
	</linearGradient>
	<path fill="url(#SVGID_4_)" d="M493.379,203.568c0,13.327-10.904,24.231-24.231,24.231H302.862
		c-13.327,0-24.231-10.904-24.231-24.231v-0.447c0-13.327,10.904-24.231,24.231-24.231h166.287
		c13.327,0,24.231,10.904,24.231,24.231V203.568z"/>
</g>
<g>
	<linearGradient id="SVGID_5_" gradientUnits="userSpaceOnUse" x1="-157.9903" y1="203.3445" x2="77.1681" y2="203.3445">
		<stop  offset="0" style="stop-color:#6041FB"/>
		<stop  offset="0.4265" style="stop-color:#644BFA"/>
		<stop  offset="0.9557" style="stop-color:#6B5DF7"/>
	</linearGradient>
	<path fill="url(#SVGID_5_)" d="M77.168,203.344c0,13.45-11.41,24.454-25.356,24.454h-184.446
		c-13.946,0-25.356-11.005-25.356-24.454c0-13.45,11.41-24.454,25.356-24.454H51.812C65.758,178.89,77.168,189.895,77.168,203.344z"
		/>
</g>
<g>
	<linearGradient id="SVGID_6_" gradientUnits="userSpaceOnUse" x1="-445.9734" y1="203.3445" x2="-327.9505" y2="203.3445">
		<stop  offset="0" style="stop-color:#6041FB"/>
		<stop  offset="0.4265" style="stop-color:#644BFA"/>
		<stop  offset="0.9557" style="stop-color:#6B5DF7"/>
	</linearGradient>
	<path fill="url(#SVGID_6_)" d="M-327.951,205.122c0,12.472-10.205,22.677-22.677,22.677h-72.669
		c-12.472,0-22.677-10.205-22.677-22.677v-3.555c0-12.472,10.205-22.677,22.677-22.677h72.669c12.472,0,22.677,10.205,22.677,22.677
		V205.122z"/>
</g>
<text transform="matrix(1 0 0 1 -420.2397 208.5689)" fill="#FFFFFF" font-family="'OpenSans'" font-size="19">трафик</text>
<text transform="matrix(1 0 0 1 -132.2558 208.5689)" fill="#FFFFFF" font-family="'OpenSans'" font-size="19">число провайдеров</text>
<text transform="matrix(1 0 0 1 301.7015 208.5689)" fill="#FFFFFF" font-family="'OpenSans'" font-size="19">спрос на DIS-коин</text>
<text transform="matrix(1 0 0 1 -420.2399 279.7573)" fill="#FFFFFF" font-family="'OpenSans'" font-size="19">курс DIS-коин</text>
<text transform="matrix(1 0 0 1 -53.3041 279.7573)" fill="#FFFFFF" font-family="'OpenSans'" font-size="19">вознаграждение туриста</text>
<g>
	<linearGradient id="SVGID_7_" gradientUnits="userSpaceOnUse" x1="403.259" y1="273.2117" x2="521.2819" y2="273.2117">
		<stop  offset="0" style="stop-color:#6041FB"/>
		<stop  offset="0.4265" style="stop-color:#644BFA"/>
		<stop  offset="0.9557" style="stop-color:#6B5DF7"/>
	</linearGradient>
	<path fill="url(#SVGID_7_)" d="M521.282,274.989c0,12.472-10.205,22.677-22.677,22.677h-72.669
		c-12.472,0-22.677-10.205-22.677-22.677v-3.555c0-12.472,10.205-22.677,22.677-22.677h72.669c12.472,0,22.677,10.205,22.677,22.677
		V274.989z"/>
</g>
<text transform="matrix(1 0 0 1 428.9926 277.3022)" fill="#FFFFFF" font-family="'OpenSans'" font-size="19">трафик</text>
<linearGradient id="SVGID_8_" gradientUnits="userSpaceOnUse" x1="-258.2388" y1="203.4644" x2="-245.762" y2="203.4644">
	<stop  offset="0" style="stop-color:#6041FB"/>
	<stop  offset="0.4265" style="stop-color:#644BFA"/>
	<stop  offset="0.9557" style="stop-color:#6B5DF7"/>
</linearGradient>
<polyline fill="none" stroke="url(#SVGID_8_)" stroke-width="2" stroke-miterlimit="10" points="-257.532,193.109 -247.176,203.464 
	-257.532,213.82 "/>
<linearGradient id="SVGID_9_" gradientUnits="userSpaceOnUse" x1="178.0354" y1="203.4644" x2="190.5122" y2="203.4644">
	<stop  offset="0" style="stop-color:#6041FB"/>
	<stop  offset="0.4265" style="stop-color:#644BFA"/>
	<stop  offset="0.9557" style="stop-color:#6B5DF7"/>
</linearGradient>
<polyline fill="none" stroke="url(#SVGID_9_)" stroke-width="2" stroke-miterlimit="10" points="178.742,193.109 189.098,203.464 
	178.742,213.82 "/>
<linearGradient id="SVGID_10_" gradientUnits="userSpaceOnUse" x1="-392.9432" y1="488.6074" x2="-380.4664" y2="488.6074" gradientTransform="matrix(-1 0 0 -1 -77.375 761.819)">
	<stop  offset="0" style="stop-color:#6041FB"/>
	<stop  offset="0.4265" style="stop-color:#644BFA"/>
	<stop  offset="0.9557" style="stop-color:#6B5DF7"/>
</linearGradient>
<polyline fill="none" stroke="url(#SVGID_10_)" stroke-width="2" stroke-miterlimit="10" points="314.861,283.567 304.506,273.212 
	314.861,262.856 "/>
<linearGradient id="SVGID_11_" gradientUnits="userSpaceOnUse" x1="92.2287" y1="488.6074" x2="104.7055" y2="488.6074" gradientTransform="matrix(-1 0 0 -1 -77.375 761.819)">
	<stop  offset="0" style="stop-color:#6041FB"/>
	<stop  offset="0.4265" style="stop-color:#644BFA"/>
	<stop  offset="0.9557" style="stop-color:#6B5DF7"/>
</linearGradient>
<polyline fill="none" stroke="url(#SVGID_11_)" stroke-width="2" stroke-miterlimit="10" points="-170.311,283.567 
	-180.666,273.212 -170.311,262.856 "/>
<linearGradient id="SVGID_12_" gradientUnits="userSpaceOnUse" x1="600.7" y1="211.1404" x2="613.1768" y2="211.1404" gradientTransform="matrix(0.7071 0.7071 -0.7071 0.7071 317.978 -360.738)">
	<stop  offset="0" style="stop-color:#6041FB"/>
	<stop  offset="0.4265" style="stop-color:#644BFA"/>
	<stop  offset="0.9557" style="stop-color:#6B5DF7"/>
</linearGradient>
<polyline fill="none" stroke="url(#SVGID_12_)" stroke-width="2" stroke-miterlimit="10" points="601.261,206.497 601.261,221.142 
	586.616,221.142 "/>
<linearGradient id="SVGID_13_" gradientUnits="userSpaceOnUse" x1="-206.5658" y1="953.6036" x2="-194.0889" y2="953.6036" gradientTransform="matrix(-0.7071 -0.7071 0.7071 -0.7071 -1335.3942 789.3777)">
	<stop  offset="0" style="stop-color:#6041FB"/>
	<stop  offset="0.4265" style="stop-color:#644BFA"/>
	<stop  offset="0.9557" style="stop-color:#6B5DF7"/>
</linearGradient>
<polyline fill="none" stroke="url(#SVGID_13_)" stroke-width="2" stroke-miterlimit="10" points="-522.853,267.965 -522.853,253.32 
	-508.208,253.32 "/>
</svg>
