<?xml version="1.0" encoding="utf-8"?>
<!-- Generator: Adobe Illustrator 17.0.0, SVG Export Plug-In . SVG Version: 6.00 Build 0)  -->
<!DOCTYPE svg PUBLIC "-//W3C//DTD SVG 1.1//EN" "http://www.w3.org/Graphics/SVG/1.1/DTD/svg11.dtd">
<svg version="1.1" id="Layer_1" xmlns="http://www.w3.org/2000/svg" xmlns:xlink="http://www.w3.org/1999/xlink" x="0px" y="0px"
	 width="25.02px" height="25.021px" viewBox="0 0 25.02 25.021" enable-background="new 0 0 25.02 25.021" xml:space="preserve">
<g>
	<path fill="#FFFFFF" d="M23.189,6.031c-1.885-1.883-3.769-3.767-5.652-5.652c-0.05-0.05-0.098-0.074-0.172-0.074
		c-4.62,0.002-9.24,0.002-13.86,0.002c-0.035,0-0.069,0-0.102,0c0,8.216,0,16.415,0,24.62c6.616,0,13.228,0,19.853,0
		c0-0.04,0-0.073,0-0.105c0-6.209,0-12.418,0.001-18.627C23.258,6.126,23.238,6.079,23.189,6.031z M17.703,1.699
		c1.387,1.387,2.776,2.776,4.163,4.163c-1.379,0-2.767,0-4.163,0C17.703,4.472,17.703,3.081,17.703,1.699z M22.457,24.13
		c-6.085,0-12.169,0-18.26,0c0-7.678,0-15.348,0-23.024c4.233,0,8.462,0,12.701,0c0,1.848,0,3.696,0,5.554c1.859,0,3.707,0,5.559,0
		C22.457,12.489,22.457,18.306,22.457,24.13z"/>
	<path fill="#FFFFFF" d="M12.449,8.744c-2.147,0.466-3.466,2.585-3.001,4.718c0.238,1.091,0.865,1.912,1.817,2.489
		c0.058,0.035,0.082,0.071,0.081,0.139c-0.004,0.288-0.002,0.576-0.002,0.864c0,0.255,0,0.51,0,0.765
		c0,0.618,0.342,1.06,0.942,1.223c0.032,0.009,0.071,0.047,0.08,0.079c0.137,0.455,0.509,0.746,0.961,0.746
		c0.452,0,0.825-0.292,0.96-0.746c0.01-0.032,0.048-0.07,0.081-0.079c0.603-0.164,0.943-0.605,0.943-1.232
		c0-0.536,0.002-1.072-0.002-1.609c0-0.076,0.022-0.116,0.088-0.155c0.378-0.22,0.71-0.496,0.99-0.832
		c1.015-1.217,1.198-2.891,0.474-4.301C16.033,9.2,14.234,8.357,12.449,8.744z M15.824,14.593c-0.308,0.383-0.693,0.67-1.143,0.866
		c-0.127,0.055-0.18,0.122-0.166,0.263c0.015,0.151,0.003,0.304,0.003,0.47c-0.4,0-0.789,0-1.185,0c0,0.266,0,0.526,0,0.792
		c0.391,0,0.78,0,1.185,0c0,0.072,0,0.136,0,0.201c0,0.185,0.001,0.371,0,0.556c-0.002,0.278-0.162,0.438-0.437,0.438
		c-0.503,0-1.006,0-1.509,0c-0.273,0-0.433-0.157-0.433-0.43c-0.001-0.702-0.002-1.403,0.001-2.105c0-0.077-0.021-0.117-0.093-0.148
		c-0.52-0.23-0.968-0.555-1.306-1.019c-0.46-0.631-0.637-1.341-0.581-2.113c0.05-0.686,0.289-1.3,0.737-1.824
		c0.506-0.592,1.152-0.938,1.919-1.058c0.672-0.105,1.323-0.023,1.928,0.291c1.037,0.538,1.627,1.395,1.743,2.559
		C16.57,13.17,16.355,13.932,15.824,14.593z"/>
	<circle fill="#FFFFFF" cx="6.178" cy="2.293" r="0.397"/>
	<circle fill="#FFFFFF" cx="6.178" cy="3.882" r="0.397"/>
	<circle fill="#FFFFFF" cx="6.178" cy="5.47" r="0.397"/>
	<circle fill="#FFFFFF" cx="6.178" cy="7.059" r="0.397"/>
	<circle fill="#FFFFFF" cx="6.972" cy="9.839" r="0.397"/>
	<circle fill="#FFFFFF" cx="19.682" cy="9.839" r="0.397"/>
	<circle fill="#FFFFFF" cx="8.164" cy="10.633" r="0.397"/>
	<circle fill="#FFFFFF" cx="18.49" cy="10.633" r="0.397"/>
	<circle fill="#FFFFFF" cx="6.178" cy="12.619" r="0.397"/>
	<circle fill="#FFFFFF" cx="7.767" cy="12.619" r="0.397"/>
	<circle fill="#FFFFFF" cx="18.887" cy="12.619" r="0.397"/>
	<circle fill="#FFFFFF" cx="20.476" cy="12.619" r="0.397"/>
	<circle fill="#FFFFFF" cx="8.164" cy="14.605" r="0.397"/>
	<circle fill="#FFFFFF" cx="18.49" cy="14.605" r="0.397"/>
	<circle fill="#FFFFFF" cx="6.972" cy="15.399" r="0.397"/>
	<circle fill="#FFFFFF" cx="19.682" cy="15.399" r="0.397"/>
	<circle fill="#FFFFFF" cx="6.178" cy="18.18" r="0.397"/>
	<circle fill="#FFFFFF" cx="6.178" cy="19.768" r="0.397"/>
	<circle fill="#FFFFFF" cx="6.178" cy="21.357" r="0.397"/>
	<circle fill="#FFFFFF" cx="6.178" cy="22.945" r="0.397"/>
</g>
</svg>
