<?xml version="1.0" encoding="utf-8"?>
<!-- Generator: Adobe Illustrator 17.0.0, SVG Export Plug-In . SVG Version: 6.00 Build 0)  -->
<!DOCTYPE svg PUBLIC "-//W3C//DTD SVG 1.1//EN" "http://www.w3.org/Graphics/SVG/1.1/DTD/svg11.dtd">
<svg version="1.1" id="Layer_1" xmlns="http://www.w3.org/2000/svg" xmlns:xlink="http://www.w3.org/1999/xlink" x="0px" y="0px"
	 width="25.02px" height="25.021px" viewBox="0 0 25.02 25.021" enable-background="new 0 0 25.02 25.021" xml:space="preserve">
<g>
	<path fill="#FFFFFF" d="M10.544,8.58c0.673,0,1.344,0,2.022,0c-0.613-0.996-0.774-2.05-0.432-3.164
		c0.278-0.904,0.837-1.601,1.641-2.098c1.585-0.979,3.679-0.61,4.868,0.848c1.209,1.483,1.156,3.794-0.459,5.21
		c0.119,0.193,0.212,0.4,0.245,0.627c0.016,0.109,0.027,0.221,0.027,0.331c0.003,0.635,0.001,1.271,0.001,1.906
		c0,0.031,0,0.062,0,0.101c0.032,0.002,0.059,0.004,0.086,0.004c0.487,0,0.974,0.001,1.462-0.001c0.04,0,0.084-0.013,0.118-0.034
		c0.871-0.542,1.741-1.087,2.613-1.629c0.043-0.027,0.099-0.043,0.15-0.043c0.655-0.003,1.311-0.002,1.966-0.002
		c0.031,0,0.062,0,0.097,0c0,3.421,0,6.835,0,10.257c-0.031,0-0.059,0-0.086,0c-0.661,0-1.322,0.001-1.983-0.002
		c-0.048,0-0.101-0.017-0.142-0.042c-0.871-0.542-1.741-1.087-2.612-1.629c-0.03-0.018-0.067-0.035-0.101-0.035
		c-0.51-0.002-1.02-0.001-1.53-0.001c-0.008,0-0.017,0.002-0.038,0.005c0,0.032,0,0.065,0,0.097c0,0.638,0,1.276,0,1.915
		c-0.001,0.863-0.568,1.557-1.416,1.714c-0.202,0.037-0.414,0.029-0.635,0.042c0,0.097-0.001,0.204,0,0.31
		c0.002,0.171-0.034,0.333-0.116,0.484c-0.195,0.357-0.496,0.55-0.903,0.558c-0.201,0.004-0.407,0.005-0.602-0.037
		c-0.445-0.095-0.768-0.519-0.772-0.975c-0.001-0.114,0-0.227,0-0.347c-2.621,0-5.237,0-7.864,0c0,0.101,0,0.203,0,0.304
		c-0.001,0.605-0.452,1.059-1.058,1.056c-0.19-0.001-0.385,0.002-0.568-0.038c-0.438-0.095-0.762-0.521-0.767-0.971
		c-0.001-0.116,0-0.232,0-0.357c-0.107,0-0.206,0-0.304,0c-0.865-0.001-1.555-0.565-1.719-1.413
		c-0.022-0.116-0.027-0.238-0.028-0.357c-0.001-3.53-0.001-7.06,0-10.59c0-0.061-0.015-0.105-0.06-0.149
		C0.785,9.585,0.233,8.568,0.064,7.368C-0.209,5.425,0.391,3.78,1.833,2.452c0.745-0.687,1.631-1.119,2.628-1.294
		c1.677-0.293,3.187,0.096,4.503,1.18c0.935,0.769,1.54,1.756,1.821,2.934c0.261,1.097,0.184,2.174-0.222,3.227
		c-0.007,0.019-0.014,0.037-0.02,0.056C10.543,8.56,10.544,8.566,10.544,8.58z M2.387,11.062c0,0.041,0,0.074,0,0.107
		c0,3.353,0,6.707,0,10.06c0,0.575,0.455,1.032,1.028,1.032c0.835,0,1.669,0,2.504,0c3.607,0,7.214,0,10.82,0
		c0.58,0,1.034-0.454,1.034-1.035c0-1.909,0-3.818,0-5.727c0-1.738,0-3.476,0-5.214c0-0.183-0.051-0.351-0.15-0.513
		c-0.035,0.019-0.064,0.035-0.094,0.051c-0.688,0.379-1.424,0.533-2.205,0.449c-0.805-0.087-1.509-0.408-2.112-0.949
		c-0.046-0.042-0.091-0.056-0.152-0.056c-0.923,0.001-1.846,0.002-2.769-0.001c-0.072,0-0.11,0.021-0.148,0.083
		c-0.798,1.289-1.928,2.131-3.401,2.501c-0.659,0.165-1.327,0.195-2,0.104c-0.667-0.09-1.296-0.292-1.884-0.617
		C2.702,11.252,2.551,11.158,2.387,11.062z M5.55,11.32c2.598-0.053,4.654-2.126,4.699-4.706c0.048-2.696-2.102-4.828-4.706-4.868
		c-2.71-0.042-4.901,2.151-4.865,4.856C0.713,9.208,2.862,11.359,5.55,11.32z M24.264,20.21c0-2.968,0-5.926,0-8.884
		c-0.013-0.002-0.022-0.005-0.03-0.005c-0.399,0-0.798-0.001-1.196,0.001c-0.031,0-0.065,0.016-0.093,0.033
		c-0.801,0.5-1.601,1-2.402,1.5c-0.042,0.026-0.057,0.048-0.045,0.101c0.043,0.187-0.071,0.363-0.258,0.408
		c-0.174,0.041-0.352-0.067-0.402-0.246c-0.008-0.027-0.012-0.055-0.019-0.083c-0.453,0-0.904,0-1.356,0c0,1.823,0,3.642,0,5.463
		c0.455,0,0.904,0,1.355,0c0.003-0.01,0.006-0.017,0.008-0.025c0.039-0.214,0.205-0.344,0.396-0.31c0.2,0.035,0.31,0.21,0.277,0.428
		c-0.004,0.025,0.021,0.067,0.045,0.082c0.802,0.504,1.604,1.005,2.408,1.506c0.023,0.014,0.051,0.03,0.077,0.03
		C23.437,20.21,23.847,20.21,24.264,20.21z M15.724,9.611c1.7,0.003,3.05-1.381,3.074-3.022c0.025-1.741-1.356-3.114-3.041-3.132
		c-1.719-0.018-3.086,1.346-3.112,3.026C12.619,8.211,14.003,9.61,15.724,9.611z M4.439,22.948c0,0.118-0.001,0.229,0,0.34
		c0.002,0.195,0.146,0.338,0.341,0.341c0.114,0.001,0.228,0.001,0.342,0c0.175-0.002,0.319-0.116,0.337-0.288
		c0.014-0.128,0.003-0.259,0.003-0.392C5.12,22.948,4.785,22.948,4.439,22.948z M14.696,22.949c0,0.029,0,0.051,0,0.074
		c0,0.1-0.005,0.2,0.001,0.299c0.012,0.172,0.156,0.304,0.33,0.307c0.119,0.002,0.239,0.002,0.359,0
		c0.172-0.003,0.316-0.125,0.332-0.295c0.011-0.126,0.002-0.254,0.002-0.385C15.378,22.949,15.043,22.949,14.696,22.949z"/>
	<circle fill="#FFFFFF" cx="5.123" cy="19.868" r="0.342"/>
	<circle fill="#FFFFFF" cx="6.49" cy="19.868" r="0.342"/>
	<circle fill="#FFFFFF" cx="7.858" cy="19.868" r="0.342"/>
	<circle fill="#FFFFFF" cx="9.225" cy="19.868" r="0.342"/>
	<circle fill="#FFFFFF" cx="10.593" cy="19.868" r="0.342"/>
	<circle fill="#FFFFFF" cx="11.961" cy="19.868" r="0.342"/>
	<circle fill="#FFFFFF" cx="13.328" cy="19.868" r="0.342"/>
	<circle fill="#FFFFFF" cx="14.696" cy="19.868" r="0.342"/>
	<path fill="#FFFFFF" d="M7.174,6.535C7.173,7.475,6.401,8.244,5.461,8.243c-0.94-0.001-1.708-0.774-1.706-1.715
		c0.002-0.936,0.773-1.703,1.709-1.703C6.404,4.824,7.175,5.595,7.174,6.535z M5.46,7.559c0.57,0,1.03-0.454,1.031-1.019
		c0-0.571-0.453-1.032-1.017-1.033C4.898,5.507,4.439,5.961,4.439,6.531C4.439,7.1,4.894,7.559,5.46,7.559z"/>
	<circle fill="#FFFFFF" cx="22.902" cy="12.346" r="0.342"/>
	<circle fill="#FFFFFF" cx="22.902" cy="13.714" r="0.342"/>
	<circle fill="#FFFFFF" cx="20.167" cy="14.397" r="0.342"/>
	<circle fill="#FFFFFF" cx="22.902" cy="15.081" r="0.342"/>
	<circle fill="#FFFFFF" cx="20.167" cy="15.765" r="0.342"/>
	<circle fill="#FFFFFF" cx="22.902" cy="16.449" r="0.342"/>
	<circle fill="#FFFFFF" cx="20.167" cy="17.133" r="0.342"/>
	<circle fill="#FFFFFF" cx="22.902" cy="17.816" r="0.342"/>
	<circle fill="#FFFFFF" cx="22.902" cy="19.184" r="0.342"/>
	<path fill="#FFFFFF" d="M15.726,5.166c0.751,0.001,1.366,0.621,1.364,1.376c-0.002,0.747-0.622,1.361-1.372,1.359
		c-0.752-0.001-1.366-0.622-1.363-1.376C14.357,5.778,14.976,5.165,15.726,5.166z M16.406,6.537c0.001-0.381-0.3-0.686-0.678-0.687
		c-0.382-0.001-0.688,0.299-0.689,0.676c-0.002,0.386,0.3,0.691,0.683,0.691C16.101,7.218,16.405,6.915,16.406,6.537z"/>
</g>
</svg>
