<?xml version="1.0" encoding="utf-8"?>
<!-- Generator: Adobe Illustrator 17.0.0, SVG Export Plug-In . SVG Version: 6.00 Build 0)  -->
<!DOCTYPE svg PUBLIC "-//W3C//DTD SVG 1.1//EN" "http://www.w3.org/Graphics/SVG/1.1/DTD/svg11.dtd">
<svg version="1.1" id="Layer_1" xmlns="http://www.w3.org/2000/svg" xmlns:xlink="http://www.w3.org/1999/xlink" x="0px" y="0px"
	 width="25.02px" height="25.021px" viewBox="0 0 25.02 25.021" enable-background="new 0 0 25.02 25.021" xml:space="preserve">
<g>
	<path fill="#FFFFFF" d="M24.985,1.724c0,0.042,0,0.082,0,0.122c0,6.898,0,13.796,0.002,20.695c0,0.089-0.019,0.125-0.112,0.143
		c-1.29,0.254-2.579,0.513-3.869,0.771c-1.293,0.258-2.586,0.517-3.879,0.775c-0.177,0.035-0.353,0.091-0.532,0.102
		c-0.143,0.009-0.291-0.029-0.434-0.057c-2.245-0.447-4.489-0.897-6.734-1.346c-0.282-0.056-0.562-0.131-0.847-0.165
		c-0.157-0.018-0.324,0.021-0.483,0.053c-1.641,0.326-3.282,0.655-4.923,0.983c-1.02,0.204-2.041,0.409-3.061,0.614
		c-0.023,0.005-0.046,0.005-0.08,0.009c0-0.044,0-0.083,0-0.122c0-6.898,0-13.797-0.002-20.695c0-0.088,0.018-0.125,0.112-0.144
		C1.368,3.221,2.592,2.975,3.815,2.73C5.141,2.465,6.467,2.2,7.792,1.935c0.21-0.042,0.418-0.104,0.63-0.121
		c0.149-0.012,0.304,0.032,0.454,0.061c1.218,0.242,2.435,0.487,3.652,0.732c0.059,0.012,0.094-0.001,0.133-0.052
		c0.81-1.066,1.872-1.721,3.199-1.908c1.349-0.19,2.569,0.15,3.649,0.985c0.347,0.268,0.648,0.582,0.906,0.936
		c0.04,0.055,0.081,0.047,0.129,0.037c0.65-0.13,1.299-0.261,1.949-0.392c0.807-0.162,1.615-0.323,2.422-0.484
		C24.936,1.725,24.956,1.726,24.985,1.724z M16.537,14.553c-0.024-0.029-0.041-0.049-0.056-0.069
		c-1.181-1.602-2.285-3.256-3.258-4.993c-0.461-0.824-0.878-1.669-1.21-2.556c-0.337-0.9-0.41-1.811-0.144-2.739
		c0.081-0.282,0.189-0.556,0.287-0.839c-0.02-0.005-0.051-0.016-0.083-0.022c-1.063-0.213-2.126-0.427-3.189-0.637
		C8.728,2.666,8.561,2.61,8.412,2.637c-0.918,0.17-1.832,0.36-2.748,0.544C4.339,3.446,3.013,3.711,1.688,3.977
		C1.407,4.033,1.126,4.089,0.844,4.146c0,6.437,0,12.864,0,19.298c0.039-0.006,0.072-0.011,0.104-0.017
		c0.784-0.157,1.568-0.315,2.352-0.472c1.602-0.321,3.203-0.642,4.805-0.96c0.153-0.03,0.316-0.08,0.463-0.054
		c0.688,0.123,1.373,0.269,2.058,0.407c1.838,0.368,3.675,0.736,5.513,1.101c0.156,0.031,0.323,0.085,0.473,0.058
		c0.784-0.142,1.563-0.307,2.344-0.463c1.293-0.259,2.585-0.517,3.878-0.775c0.446-0.089,0.891-0.179,1.339-0.269
		c0-6.435,0-12.864,0-19.301c-1.097,0.22-2.185,0.437-3.281,0.657c0.017,0.039,0.029,0.066,0.041,0.093
		c0.46,1.051,0.577,2.122,0.207,3.228c-0.31,0.927-0.739,1.8-1.208,2.654c-0.855,1.558-1.831,3.038-2.859,4.486
		C16.9,14.061,16.72,14.302,16.537,14.553z M16.53,13.153c0.025-0.031,0.038-0.046,0.05-0.061c0.958-1.313,1.831-2.681,2.621-4.101
		c0.428-0.769,0.822-1.556,1.107-2.391c0.128-0.374,0.245-0.753,0.249-1.153c0.006-0.721-0.17-1.398-0.53-2.024
		c-0.915-1.589-2.748-2.353-4.505-1.89c-1.266,0.333-2.171,1.12-2.69,2.323c-0.352,0.815-0.431,1.655-0.146,2.517
		c0.222,0.672,0.502,1.318,0.826,1.945c0.724,1.403,1.561,2.738,2.455,4.038C16.147,12.62,16.336,12.88,16.53,13.153z"/>
	<circle fill="#FFFFFF" cx="8.485" cy="3.414" r="0.402"/>
	<circle fill="#FFFFFF" cx="8.485" cy="5.024" r="0.402"/>
	<circle fill="#FFFFFF" cx="8.485" cy="6.633" r="0.402"/>
	<circle fill="#FFFFFF" cx="8.485" cy="8.243" r="0.402"/>
	<circle fill="#FFFFFF" cx="8.485" cy="9.853" r="0.402"/>
	<circle fill="#FFFFFF" cx="8.485" cy="11.463" r="0.402"/>
	<circle fill="#FFFFFF" cx="8.485" cy="13.072" r="0.402"/>
	<circle fill="#FFFFFF" cx="8.485" cy="14.682" r="0.402"/>
	<circle fill="#FFFFFF" cx="16.534" cy="15.889" r="0.402"/>
	<circle fill="#FFFFFF" cx="8.485" cy="16.292" r="0.402"/>
	<circle fill="#FFFFFF" cx="16.534" cy="17.499" r="0.402"/>
	<circle fill="#FFFFFF" cx="8.485" cy="17.902" r="0.402"/>
	<circle fill="#FFFFFF" cx="16.534" cy="19.109" r="0.402"/>
	<circle fill="#FFFFFF" cx="8.485" cy="19.511" r="0.402"/>
	<circle fill="#FFFFFF" cx="16.534" cy="20.719" r="0.402"/>
	<circle fill="#FFFFFF" cx="8.485" cy="21.121" r="0.402"/>
	<circle fill="#FFFFFF" cx="16.534" cy="22.329" r="0.402"/>
	<path fill="#FFFFFF" d="M18.144,5.432c-0.002,0.88-0.729,1.604-1.611,1.604c-0.886,0-1.611-0.729-1.608-1.616
		c0.002-0.885,0.732-1.607,1.621-1.603C17.424,3.82,18.145,4.549,18.144,5.432z M16.538,4.621c-0.449-0.001-0.807,0.353-0.809,0.799
		c-0.001,0.449,0.352,0.809,0.796,0.811c0.454,0.002,0.814-0.353,0.814-0.804C17.339,4.98,16.984,4.622,16.538,4.621z"/>
</g>
</svg>
