<?xml version="1.0" encoding="utf-8"?>
<!-- Generator: Adobe Illustrator 17.0.0, SVG Export Plug-In . SVG Version: 6.00 Build 0)  -->
<!DOCTYPE svg PUBLIC "-//W3C//DTD SVG 1.1//EN" "http://www.w3.org/Graphics/SVG/1.1/DTD/svg11.dtd">
<svg version="1.1" id="Layer_1" xmlns="http://www.w3.org/2000/svg" xmlns:xlink="http://www.w3.org/1999/xlink" x="0px" y="0px"
	 width="25.02px" height="25.021px" viewBox="0 0 25.02 25.021" enable-background="new 0 0 25.02 25.021" xml:space="preserve">
<g>
	<path fill="#FFFFFF" d="M0,23.612c0-0.238,0-0.469,0-0.707c0.474,0,0.944,0,1.423,0c0-1.67,0-3.334,0-5.002
		c1.671,0,3.333,0,5.004,0c0,1.661,0,3.325,0,4.994c0.243,0,0.476,0,0.716,0c0-3.331,0-6.661,0-9.998c1.67,0,3.334,0,5.007,0
		c0,3.331,0,6.663,0,10c0.241,0,0.472,0,0.713,0c0-5.238,0-10.477,0-15.722c1.673,0,3.337,0,5.007,0c0,5.239,0,10.476,0,15.72
		c0.24,0,0.473,0,0.716,0c0-7.145,0-14.291,0-21.442c1.671,0,3.332,0,5.004,0c0,7.145,0,14.291,0,21.447c0.481,0,0.953,0,1.429,0
		c0,0.241,0,0.472,0,0.71C16.682,23.612,8.344,23.612,0,23.612z M19.31,2.169c0,6.915,0,13.822,0,20.73c1.191,0,2.376,0,3.564,0
		c0-6.911,0-13.819,0-20.73C21.685,2.169,20.5,2.169,19.31,2.169z M17.152,22.899c0-5.008,0-10.008,0-15.009
		c-1.191,0-2.376,0-3.564,0c0,5.005,0,10.005,0,15.009C14.777,22.899,15.961,22.899,17.152,22.899z M11.431,22.899
		c0-3.1,0-6.193,0-9.285c-1.193,0-2.379,0-3.565,0c0,3.098,0,6.19,0,9.285C9.055,22.899,10.24,22.899,11.431,22.899z M5.71,22.899
		c0-1.432,0-2.857,0-4.28c-1.193,0-2.38,0-3.564,0c0,1.43,0,2.853,0,4.28C3.335,22.899,4.519,22.899,5.71,22.899z"/>
	<path fill="#FFFFFF" d="M2.059,11.72c-0.183-0.184-0.347-0.347-0.508-0.508C4.019,8.744,6.493,6.27,8.966,3.797
		C8.327,3.159,7.703,2.535,7.079,1.911c0.005-0.009,0.01-0.019,0.014-0.028c1.575-0.158,3.151-0.315,4.743-0.475
		c-0.159,1.587-0.316,3.162-0.474,4.739c-0.627-0.627-1.249-1.249-1.866-1.866C7.007,6.771,4.533,9.246,2.059,11.72z M8.682,2.443
		c0.708,0.708,1.414,1.414,2.12,2.121c0.078-0.776,0.157-1.562,0.236-2.357C10.241,2.286,9.457,2.365,8.682,2.443z"/>
	<circle fill="#FFFFFF" cx="16.443" cy="8.959" r="0.357"/>
	<circle fill="#FFFFFF" cx="15.37" cy="10.031" r="0.357"/>
	<circle fill="#FFFFFF" cx="14.298" cy="11.104" r="0.357"/>
	<circle fill="#FFFFFF" cx="16.443" cy="11.104" r="0.357"/>
	<circle fill="#FFFFFF" cx="15.37" cy="12.177" r="0.357"/>
	<circle fill="#FFFFFF" cx="14.298" cy="13.249" r="0.357"/>
	<circle fill="#FFFFFF" cx="16.443" cy="13.249" r="0.357"/>
	<circle fill="#FFFFFF" cx="15.37" cy="14.322" r="0.357"/>
	<circle fill="#FFFFFF" cx="14.297" cy="15.395" r="0.357"/>
	<circle fill="#FFFFFF" cx="16.443" cy="15.395" r="0.357"/>
	<circle fill="#FFFFFF" cx="15.37" cy="16.467" r="0.357"/>
	<circle fill="#FFFFFF" cx="14.297" cy="17.54" r="0.357"/>
	<circle fill="#FFFFFF" cx="16.443" cy="17.54" r="0.357"/>
	<circle fill="#FFFFFF" cx="15.37" cy="18.613" r="0.357"/>
	<circle fill="#FFFFFF" cx="14.298" cy="8.959" r="0.357"/>
	<circle fill="#FFFFFF" cx="14.297" cy="19.685" r="0.357"/>
	<circle fill="#FFFFFF" cx="16.443" cy="19.685" r="0.357"/>
	<circle fill="#FFFFFF" cx="15.37" cy="20.758" r="0.357"/>
	<circle fill="#FFFFFF" cx="14.297" cy="21.831" r="0.357"/>
	<circle fill="#FFFFFF" cx="16.443" cy="21.831" r="0.357"/>
	<circle fill="#FFFFFF" cx="2.856" cy="19.685" r="0.357"/>
	<circle fill="#FFFFFF" cx="5.001" cy="19.685" r="0.357"/>
	<circle fill="#FFFFFF" cx="3.929" cy="20.758" r="0.357"/>
	<circle fill="#FFFFFF" cx="2.856" cy="21.831" r="0.357"/>
	<circle fill="#FFFFFF" cx="5.001" cy="21.831" r="0.357"/>
</g>
</svg>
